<svg id="Capa_1" enable-background="new 0 0 512 512" height="512" viewBox="0 0 512 512" width="512" xmlns="http://www.w3.org/2000/svg"><g><path d="m486.163 145.684h-64.997v-29.107h64.997c8.038 0 14.554 6.516 14.554 14.554 0 8.037-6.516 14.553-14.554 14.553z" fill="#fcd79f"/><g><g><g><path d="m373.87 264.179-8.118 50.541h-91.738l-8.128-50.541c-.597-3.75 2.297-7.16 6.109-7.16h95.776c3.802 0 6.707 3.41 6.099 7.16z" fill="#fca863"/><path d="m373.87 264.179-8.118 50.541h-59.648c34.171-13.969 39.044-41.187 38.529-57.701h23.138c3.802 0 6.707 3.41 6.099 7.16z" fill="#fc9744"/></g><g><circle cx="135.863" cy="289.338" fill="#cbe5e7" r="25.376"/><path d="m160.478 283.155c3.414 13.591-4.838 27.38-18.43 30.794-9.493 2.384-19.071-.917-25.159-7.753 3.372.578 6.916.476 10.447-.411 13.592-3.414 21.844-17.202 18.43-30.794-1.03-4.099-3.001-7.721-5.633-10.671 9.607 1.643 17.818 8.775 20.345 18.835z" fill="#a9d3d8"/><path d="m135.857 297.066c-3.459 0-6.608-2.339-7.488-5.847l-.858-3.415c-1.039-4.138 1.473-8.336 5.612-9.375 4.144-1.034 8.337 1.474 9.376 5.613l.857 3.415c1.04 4.138-1.473 8.336-5.612 9.375-.631.158-1.264.234-1.887.234z" fill="#90bac4"/></g><g><circle cx="210.794" cy="289.339" fill="#cbe5e7" r="25.376"/><path d="m223.827 267.562c12.025 7.197 15.94 22.782 8.743 34.806-5.026 8.399-14.133 12.837-23.272 12.308 2.793-1.976 5.227-4.554 7.097-7.678 7.197-12.025 3.282-27.61-8.743-34.806-3.626-2.17-7.582-3.337-11.528-3.562 7.953-5.632 18.802-6.395 27.703-1.068z" fill="#a9d3d8"/><path d="m210.786 297.066c-1.35 0-2.717-.354-3.96-1.098l-3.021-1.808c-3.661-2.191-4.854-6.936-2.662-10.598 2.191-3.661 6.935-4.852 10.597-2.662l3.021 1.808c3.661 2.191 4.854 6.936 2.662 10.598-1.447 2.419-4.009 3.76-6.637 3.76z" fill="#90bac4"/></g></g><g><g><path d="m190.445 90.746c-13.698 0-24.842-11.144-24.842-24.842 0-13.697 11.144-24.841 24.842-24.841 13.697 0 24.841 11.144 24.841 24.841 0 13.698-11.144 24.842-24.841 24.842zm0-34.231c-5.177 0-9.389 4.211-9.389 9.388s4.212 9.389 9.389 9.389 9.388-4.212 9.388-9.389-4.212-9.388-9.388-9.388z" fill="#90bac4"/><path d="m282.243 162.472-96.307 9-87.294-9c0-50.692 41.104-91.796 91.805-91.796 15.114 0 29.369 3.65 41.944 10.129 29.604 15.236 49.852 46.09 49.852 81.667z" fill="#a9d3d8"/><path d="m282.243 162.472h-86.754c52.297-19.791 46.948-57.712 36.903-81.667 29.603 15.236 49.851 46.09 49.851 81.667z" fill="#90bac4"/></g><g><g><path d="m369.726 67.085c-1.248-1.623-2.373-3.324-3.381-5.085h-41.987c-1.008 1.76-2.133 3.462-3.381 5.085-.121.159-.243.317-.345.476-3.314 4.49-5.265 10.054-5.265 16.057v65.787c0 7.16 5.769 12.986 12.911 13.07l17.075 6 16.916-6c7.216 0 13.07-5.853 13.07-13.07v-65.787c0-6.003-1.951-11.567-5.265-16.057-.105-.159-.227-.318-.348-.476z" fill="#99d53b"/><path d="m369.726 67.085c-1.248-1.623-2.373-3.324-3.381-5.085h-19.108c-1.438 31.919-6.276 69.139-18.96 100.474h33.99c7.218 0 13.07-5.851 13.07-13.07v-65.786c0-6.003-1.951-11.567-5.265-16.057-.103-.159-.225-.318-.346-.476z" fill="#8dc637"/><path d="m370.071 67.561-17.009 17.009c-2.128 2.128-4.92 3.193-7.711 3.193s-5.583-1.064-7.711-3.193l-17.009-17.009c.103-.159.224-.317.345-.476 5.807-7.552 9.13-16.72 9.13-26.242v-31.508c0-5.153 4.182-9.335 9.335-9.335h11.819c5.153 0 9.335 4.182 9.335 9.335v31.507c0 9.522 3.323 18.69 9.13 26.242.122.159.244.318.346.477z" fill="#fcddb3"/><path d="m370.071 67.561-17.009 17.009c-2.128 2.128-4.92 3.193-7.711 3.193 3.809-36.884 2.241-70.94.99-87.763h4.92c5.153 0 9.335 4.182 9.335 9.335v31.507c0 9.522 3.323 18.69 9.13 26.242.121.159.243.318.345.477z" fill="#fbcc85"/></g></g></g><g><path d="m58.57 162.476h356.839v31.579h-356.839z" fill="#fcd79f"/><path d="m415.409 162.476v31.579h-24.381c-.618-12.193-1.601-23.039-2.548-31.579z" fill="#fac574"/></g><g><path d="m58.57 312.629h356.839v31.58h-356.839z" fill="#fcd79f"/><path d="m384.022 312.629h31.388v31.58h-43.055c5.011-9.514 8.823-20.233 11.667-31.58z" fill="#fac574"/></g><g><g><g><circle cx="106.573" cy="478.941" fill="#3f5959" r="24.618"/></g><g><circle cx="367.407" cy="478.941" fill="#3f5959" r="24.618"/></g></g><g><g fill="#fdf6ed"><path d="m38.681 109.848v341.672h28.265v-341.672c0-7.805-6.327-14.133-14.133-14.133-7.805 0-14.132 6.327-14.132 14.133z"/><path d="m407.033 109.848v341.672h28.265v-341.672c0-7.805-6.327-14.133-14.133-14.133-7.805 0-14.132 6.327-14.132 14.133z"/></g></g><g><g><path d="m206.393 392.122c-.762 3.358-2.122 6.49-3.956 9.282-1.061 1.607-2.277 3.101-3.637 4.461-5.12 5.12-12.208 8.293-20.027 8.293l-21.613 6-21.613-6c-9.89 0-18.595-5.069-23.653-12.754-1.844-2.792-3.204-5.924-3.966-9.282-.731-3.224 1.731-6.284 5.038-6.284h88.4c3.296 0 5.759 3.06 5.027 6.284z" fill="#fcd79f"/><path d="m206.393 420.443c-.762 3.358-2.122 6.49-3.956 9.282-1.061 1.607-2.277 3.101-3.637 4.461-5.12 5.12-12.208 8.293-20.027 8.293h-43.226c-9.89 0-18.595-5.069-23.653-12.754-1.844-2.792-3.204-5.924-3.966-9.282-.731-3.224 1.731-6.284 5.038-6.284h88.4c3.296 0 5.759 3.06 5.027 6.284z" fill="#5591d6"/><path d="m206.393 420.443c-.762 3.358-2.122 6.49-3.956 9.282-1.061 1.607-2.277 3.101-3.637 4.461-5.12 5.12-12.208 8.293-20.027 8.293h-13.423c11.528-9.21 14.989-20.624 15.906-28.32h20.109c3.297 0 5.76 3.06 5.028 6.284z" fill="#1475cb"/></g><g><path d="m206.393 392.122c-.762 3.358-2.122 6.49-3.956 9.282-1.061 1.607-2.277 3.101-3.637 4.461-5.12 5.12-12.208 8.293-20.027 8.293h-13.423c11.528-9.21 14.989-20.624 15.906-28.32h20.109c3.297 0 5.76 3.06 5.028 6.284z" fill="#fac574"/></g></g><g><path d="m342.658 392.122c-.762 3.358-2.122 6.49-3.956 9.282-1.061 1.607-2.277 3.101-3.637 4.461-5.12 5.12-12.208 8.293-20.027 8.293l-20.289 9-22.938-9c-9.89 0-18.595-5.069-23.653-12.754-1.844-2.792-3.204-5.924-3.966-9.282-.731-3.224 1.731-6.284 5.038-6.284h88.4c3.297 0 5.759 3.06 5.028 6.284z" fill="#fcd79f"/><path d="m342.658 392.122c-.762 3.358-2.122 6.49-3.956 9.282-1.061 1.607-2.277 3.101-3.637 4.461-5.12 5.12-12.208 8.293-20.027 8.293h-13.423c11.528-9.21 14.989-20.624 15.906-28.32h20.109c3.297 0 5.759 3.06 5.028 6.284z" fill="#fac574"/></g><path d="m342.658 420.443c-.762 3.358-2.122 6.49-3.956 9.282-1.061 1.607-2.277 3.101-3.637 4.461-5.12 5.12-12.208 8.293-20.027 8.293h-43.226c-9.89 0-18.595-5.069-23.653-12.754-1.844-2.792-3.204-5.924-3.966-9.282-.731-3.224 1.731-6.284 5.038-6.284h88.4c3.296 0 5.758 3.06 5.027 6.284z" fill="#5591d6"/><path d="m342.658 420.443c-.762 3.358-2.122 6.49-3.956 9.282-1.061 1.607-2.277 3.101-3.637 4.461-5.12 5.12-12.208 8.293-20.027 8.293h-13.423c11.528-9.21 14.989-20.624 15.906-28.32h20.109c3.297 0 5.759 3.06 5.028 6.284z" fill="#1475cb"/><path d="m448.131 470.11h-422.283c-8.044 0-14.564-6.521-14.564-14.564 0-8.044 6.521-14.564 14.564-14.564h422.283c8.044 0 14.564 6.521 14.564 14.564.001 8.043-6.52 14.564-14.564 14.564z" fill="#fcd79f"/><g><circle cx="83.184" cy="487.382" fill="#688d97" r="24.618"/><path d="m83.184 495.109c-4.267 0-7.726-3.459-7.726-7.726v-17.116c0-4.268 3.459-7.726 7.726-7.726s7.726 3.459 7.726 7.726v17.116c.001 4.267-3.459 7.726-7.726 7.726z" fill="#3f5959"/></g><g><circle cx="390.795" cy="487.382" fill="#688d97" r="24.618"/><path d="m390.795 495.109c-4.267 0-7.726-3.459-7.726-7.726v-17.116c0-4.268 3.459-7.726 7.726-7.726s7.726 3.459 7.726 7.726v17.116c0 4.267-3.459 7.726-7.726 7.726z" fill="#3f5959"/></g></g><g><g><path d="m337.627 420.381h.011z"/></g></g></g></g></svg>