<svg id="Capa_1" enable-background="new 0 0 512 512" height="512" viewBox="0 0 512 512" width="512" xmlns="http://www.w3.org/2000/svg"><g><g><path d="m174.976 88.39v4.337c0 8.221-6.665 14.896-14.886 14.896l-36.968 6.181-36.958-6.181c-8.221 0-14.896-6.676-14.896-14.896v-4.337c0-8.221 6.676-14.886 14.896-14.886h73.926c8.221-.001 14.886 6.665 14.886 14.886z" fill="#5591d6"/><g fill="#fdf6ed"><path d="m22.149 107.623h230.761v49.109h-230.761z"/><path d="m416.365 107.623h73.486v49.109h-73.486z"/></g><path d="m22.149 107.623h24.209v49.109h-24.209z" fill="#f9e1c2"/><path d="m489.851 107.623v49.109h-43.68c6.706-17.05 9.756-34.212 10.93-49.109z" fill="#f9e1c2"/><g fill="#fac574"><path d="m22.149 138.951h230.761v62.656h-230.761z"/><path d="m416.365 138.951h73.486v62.656h-73.486z"/></g><g fill="#e8b66b"><path d="m89.111 138.746h85.866v15.855h-85.866z"/><path d="m89.111 170.074h85.866v15.855h-85.866z"/><path d="m22.149 138.951h24.209v62.656h-24.209z"/><path d="m489.851 138.951v62.656h-72.885c18.986-18.801 29.422-41.3 34.975-62.656z"/></g><path d="m431.471 97.527v114.546c0 3.41-2.761 6.181-6.181 6.181h-181.312c-3.41 0-6.181-2.771-6.181-6.181v-114.546c0-5.687 4.615-10.302 10.302-10.302h173.071c5.696 0 10.301 4.616 10.301 10.302z" fill="#cbe5e7"/><path d="m431.471 97.527v114.546c0 3.41-2.761 6.181-6.181 6.181h-69.352c38.055-42.31 41.413-100.134 39.992-131.029h25.239c5.697 0 10.302 4.616 10.302 10.302z" fill="#a9d3d8"/></g><g><g fill="#fdf6ed"><path d="m416.365 326.907h73.486v49.119h-73.486z"/><path d="m22.149 326.907h230.761v49.119h-230.761z"/></g><path d="m22.149 326.907h24.209v49.119h-24.209z" fill="#f9e1c2"/><path d="m489.851 326.907v49.119h-39.394c5.275-17.812 6.995-35.098 7.222-49.119z" fill="#f9e1c2"/><g fill="#fac574"><path d="m22.149 358.235h230.761v62.666h-230.761z"/><path d="m416.365 358.235h73.486v62.666h-73.486z"/></g><g fill="#e8b66b"><path d="m89.111 358.256h85.866v15.855h-85.866z"/><path d="m89.111 389.584h85.866v15.855h-85.866z"/><path d="m22.149 358.235h24.209v62.666h-24.209z"/><path d="m489.851 358.235v62.666h-61.893c15.278-19.852 23.014-42.279 26.713-62.666z"/></g><path d="m358.562 306.519-36.961 6.181-36.961-6.181c-8.224 0-14.891-6.667-14.891-14.891v-4.336c0-8.224 6.667-14.891 14.891-14.891h73.922c8.224 0 14.891 6.667 14.891 14.891v4.336c0 8.224-6.667 14.891-14.891 14.891z" fill="#5591d6"/><path d="m431.471 316.822v114.546c0 3.41-2.761 6.181-6.181 6.181h-181.312c-3.41 0-6.181-2.771-6.181-6.181v-114.546c0-5.687 4.615-10.302 10.302-10.302h173.071c5.696 0 10.301 4.615 10.301 10.302z" fill="#cbe5e7"/><path d="m431.471 316.822v114.546c0 3.41-2.761 6.181-6.181 6.181h-69.084c31.853-43.803 36.386-106.088 36.86-131.029h28.103c5.697 0 10.302 4.615 10.302 10.302z" fill="#a9d3d8"/></g><g fill="#fbcc85"><path d="m26.785 465.899h-21.634c-2.845 0-5.151-2.306-5.151-5.151v-417.223c0-2.845 2.306-5.151 5.151-5.151h21.634c2.845 0 5.151 2.306 5.151 5.151v417.223c0 2.845-2.307 5.151-5.151 5.151z"/><path d="m506.849 465.899h-21.634c-2.845 0-5.151-2.306-5.151-5.151v-417.223c0-2.845 2.306-5.151 5.151-5.151h21.634c2.845 0 5.151 2.306 5.151 5.151v417.223c0 2.845-2.306 5.151-5.151 5.151z"/></g><g><path d="m373.451 287.287v4.337c0 8.231-6.665 14.896-14.886 14.896h-25.26c10.868-11.023 15.442-23.756 17.245-34.12h8.015c8.221 0 14.886 6.666 14.886 14.887z" fill="#1475cb"/></g><g><path d="m174.976 88.39v4.337c0 8.221-6.665 14.896-14.886 14.896h-24.271c9.364-12.651 11.445-25.291 11.425-34.12h12.846c8.221 0 14.886 6.666 14.886 14.887z" fill="#1475cb"/></g><path d="m175.989 131.22c-.47 0-.927.049-1.374.129-.447-.08-.904-.129-1.374-.129h-86.534c-4.267 0-7.726 3.459-7.726 7.726v326.953c0 4.268 3.459 7.726 7.726 7.726s7.726-3.459 7.726-7.726v-68.6h73.83v68.6c0 4.268 3.459 7.726 7.726 7.726s7.726-3.459 7.726-7.726v-326.952c.001-4.268-3.458-7.727-7.726-7.727zm-7.726 78.11v15.875h-73.83v-15.875zm-73.83-15.453v-15.876h73.83v15.876zm73.83 46.781v15.876h-73.83v-15.876zm0 31.329v15.875h-73.83v-15.875zm0 31.328v15.876h-73.83v-15.876zm0-140.767h-73.83v-15.875h73.83zm-73.83 172.096h73.83v15.875h-73.83zm0 47.203v-15.875h73.83v15.875z" fill="#fcddb3"/></g></svg>