<?xml version="1.0" encoding="iso-8859-1"?>
<!-- Generator: Adobe Illustrator 19.0.0, SVG Export Plug-In . SVG Version: 6.00 Build 0)  -->
<svg version="1.1" id="Capa_1" xmlns="http://www.w3.org/2000/svg" xmlns:xlink="http://www.w3.org/1999/xlink" x="0px" y="0px"
	 viewBox="0 0 512 512" style="enable-background:new 0 0 512 512;" xml:space="preserve">
<circle style="fill:#F9E7CD;" cx="255.998" cy="255.999" r="255.998"/>
<path style="fill:#27D1CF;" d="M512,256.001c0,3.312-0.063,6.614-0.188,9.906c-1.703,44.68-14.848,86.423-36.592,122.388
	c-44.847,74.146-126.244,123.705-219.218,123.705S81.63,462.44,36.783,388.294C15.039,352.329,1.894,310.586,0.191,265.906
	c-0.125-3.291-0.188-6.593-0.188-9.906c0-10.512,0.637-20.887,1.87-31.065H510.13C511.363,235.113,512,245.489,512,256.001z"/>
<path style="fill:#FFC772;" d="M482.68,136.946c-13.96,15.642-34.272,25.485-56.884,25.485c-42.099,0-76.225-34.126-76.225-76.225
	c0-22.611,9.853-42.935,25.495-56.884C420.917,53.448,458.554,91.085,482.68,136.946z"/>
<circle style="fill:#BA612E;" cx="83.132" cy="156.557" r="32.217"/>
<path style="fill:#F48944;" d="M231.718,354.011c-6.729,0.512-13.469,1.034-20.198,1.546c-9.822,0.752-19.644,1.515-29.476,2.267
	c-6.52-84.772-26.279-167.998-58.545-246.657l45.536-20.25c14.148,34.335,26.049,69.496,35.652,105.252
	C218.542,247.756,227.612,300.596,231.718,354.011z"/>
<path style="fill:#F99961;" d="M231.718,354.011c-6.729,0.512-13.469,1.034-20.198,1.546
	c-5.085-44.552-13.853-88.642-26.225-131.828c-3.049-10.643,2.744-21.812,13.21-25.425l6.182-2.135
	C218.542,247.756,227.612,300.596,231.718,354.011z"/>
<path style="fill:#3AB760;" d="M259.213,82.937c12.477-2.983,24.683-8.057,36.123-15.314
	c-27.911-43.937-79.884-63.317-127.827-51.895c-12.489,2.976-24.716,8.046-36.163,15.314l-1.467,0.349
	c-13.494-1.325-26.693-0.337-39.182,2.638C42.754,45.453,5.104,86.187,0.003,137.988c13.482,1.319,26.666,0.345,39.147-2.62"/>
<g>
	<circle style="fill:#C46C35;" cx="114.447" cy="143.726" r="32.217"/>
	<circle style="fill:#C46C35;" cx="186.127" cy="105.169" r="32.217"/>
</g>
<g>
	<path style="fill:#43C970;" d="M172.97,97.989c27.412,21.086,63.75,30.078,100.015,21.438
		c-7.604-31.912-27.423-57.723-53.321-73.654s-57.872-21.985-89.784-14.381c0.049,0.205,0.098,0.41,0.146,0.615
		c0.002,0.009,0.002,0.009,0.002,0.009"/>
	<path style="fill:#43C970;" d="M130.028,32.017c0,0,0,0-0.002-0.009c-0.049-0.205-0.098-0.41-0.146-0.615
		c-0.205,0.049-0.41,0.098-0.615,0.146c-31.63,7.713-57.207,27.439-73.039,53.175c-15.931,25.898-21.985,57.873-14.381,89.785
		c35.651-8.494,63.678-32.224,78.838-62.654"/>
</g>
<path style="fill:#53D37A;" d="M168.358,191.741c-53.676-33.726-72.306-105.031-39.091-160.2l0,0l0.046,0.027
	C184.371,64.717,200.013,136.905,168.358,191.741z"/>
<path style="fill:#EDAB49;" d="M475.22,388.294c-14.503,23.98-32.82,45.38-54.125,63.362
	c-44.575,37.647-102.18,60.342-165.093,60.342c-92.974,0-174.372-49.559-219.218-123.705c28.536-17.7,59.381-32.047,91.95-42.485
	c40.124-12.863,82.881-19.801,127.268-19.801C336.437,326.008,411.544,348.808,475.22,388.294z"/>
<path style="fill:#FFC772;" d="M475.224,388.341c-14.509,23.976-32.833,45.37-54.143,63.348
	c-30.234,17.797-66.473,28.152-105.437,28.141c-91.7-0.025-168.306-57.452-186.895-134.069
	c40.128-12.851,82.886-19.778,127.273-19.766C336.458,326.018,411.559,348.837,475.224,388.341z"/>
<g>
	<circle style="fill:#EDAB49;" cx="229.876" cy="393.162" r="6.269"/>
	<circle style="fill:#EDAB49;" cx="381.385" cy="398.387" r="6.269"/>
	<circle style="fill:#EDAB49;" cx="355.263" cy="368.085" r="6.269"/>
	<circle style="fill:#EDAB49;" cx="347.949" cy="402.566" r="6.269"/>
	<circle style="fill:#EDAB49;" cx="175.542" cy="425.554" r="6.269"/>
	<circle style="fill:#EDAB49;" cx="202.709" cy="393.162" r="6.269"/>
	<circle style="fill:#EDAB49;" cx="216.293" cy="414.06" r="6.269"/>
	<circle style="fill:#EDAB49;" cx="266.447" cy="434.958" r="6.269"/>
	<circle style="fill:#EDAB49;" cx="157.779" cy="372.265" r="6.269"/>
	<circle style="fill:#EDAB49;" cx="217.337" cy="453.766" r="6.269"/>
</g>
<g>
</g>
<g>
</g>
<g>
</g>
<g>
</g>
<g>
</g>
<g>
</g>
<g>
</g>
<g>
</g>
<g>
</g>
<g>
</g>
<g>
</g>
<g>
</g>
<g>
</g>
<g>
</g>
<g>
</g>
</svg>
