<?xml version="1.0" encoding="utf-8"?>
<!-- Generator: Adobe Illustrator 24.0.1, SVG Export Plug-In . SVG Version: 6.00 Build 0)  -->
<svg version="1.1" id="Capa_1" xmlns="http://www.w3.org/2000/svg" xmlns:xlink="http://www.w3.org/1999/xlink" x="0px" y="0px"
	 viewBox="0 0 378 100" style="enable-background:new 0 0 378 100;" xml:space="preserve">
<style type="text/css">
	.st0{fill:#FAC176;}
	.st1{fill:#F29C1F;}
	.st2{fill:#D25627;}
	.st3{fill:#E57E25;}
	.st4{fill:#3F5C6C;}
	.st5{fill:#35495E;}
	.st6{fill:#F3D55B;}
	.st7{fill:#A56A43;}
	.st8{fill:#FFFFFF;}
	.st9{fill:#F0C419;}
</style>
<g id="Page-1">
	<g id="_x30_12---Hotel">
		<path id="Shape" class="st0" d="M204.22,47.43V1.72c0-0.95,0.9-1.72,2.02-1.72h28.24c1.11,0,2.02,0.77,2.02,1.72v87.93
			c0,0.95-0.9,1.72-2.02,1.72h-30.26V47.43z"/>
		<path id="Shape_1_" class="st0" d="M151.78,91.38h-30.26c-1.11,0-2.02-0.77-2.02-1.72V1.72c0-0.95,0.9-1.72,2.02-1.72h28.24
			c1.11,0,2.02,0.77,2.02,1.72V91.38z"/>
		<path id="Shape_2_" class="st1" d="M204.22,22.41v25.02c-5.22-4.66-15.01-7.78-26.22-7.78s-21,3.12-26.22,7.78V22.41h15.07
			l1.86,1.5l-1.47,7.16c-0.14,0.65,0.16,1.3,0.78,1.69c0.62,0.39,1.44,0.45,2.12,0.15l7.87-3.43l7.87,3.43
			c0.68,0.3,1.51,0.24,2.12-0.15c0.62-0.39,0.92-1.05,0.78-1.69l-1.47-7.16l1.86-1.5L204.22,22.41z"/>
		<path id="Shape_3_" class="st2" d="M178,43.28c-1.11,0-2.02-0.77-2.02-1.72V27.59c0-0.95,0.9-1.72,2.02-1.72s2.02,0.77,2.02,1.72
			v13.97C180.02,42.5,179.11,43.28,178,43.28z"/>
		<path id="Shape_4_" class="st3" d="M151.78,65.52v32.76c0,0.95-0.9,1.72-2.02,1.72h-6.05c-1.11,0-2.02-0.77-2.02-1.72V65.52
			H151.78z"/>
		<path id="Shape_5_" class="st3" d="M214.31,65.52v32.76c0,0.95-0.9,1.72-2.02,1.72h-6.05c-1.11,0-2.02-0.77-2.02-1.72V65.52
			H214.31z"/>
		<path id="Rectangle-path" class="st2" d="M151.78,65.52h52.45v25.86h-52.45V65.52z"/>
		<path id="Rectangle-path_1_" class="st1" d="M137.66,55.17h80.69c2.23,0,4.03,1.54,4.03,3.45v3.45c0,1.9-1.81,3.45-4.03,3.45
			h-80.69c-2.23,0-4.03-1.54-4.03-3.45v-3.45C133.62,56.72,135.43,55.17,137.66,55.17z"/>
		<path id="Shape_6_" class="st4" d="M178,74.14v17.24h-10.09V75.86c0-0.95,0.9-1.72,2.02-1.72H178z"/>
		<path id="Shape_7_" class="st5" d="M188.09,75.86v15.52H178V74.14h8.07C187.18,74.14,188.09,74.91,188.09,75.86z"/>
		<path id="Shape_8_" class="st4" d="M159.84,77.59v13.79h-8.07V75.86h6.05C158.94,75.86,159.84,76.63,159.84,77.59z"/>
		<path id="Shape_9_" class="st4" d="M204.22,75.86v15.52h-8.07V77.59c0-0.95,0.9-1.72,2.02-1.72H204.22z"/>
		<path id="Shape_10_" class="st6" d="M208.26,55.17h-60.52c0.11-2.93,1.56-5.71,4.03-7.74c5.22-4.66,15.01-7.78,26.22-7.78
			c11.22,0,21,3.12,26.22,7.78C206.7,49.46,208.15,52.24,208.26,55.17z"/>
		<g>
			<path id="Shape_11_" class="st7" d="M133.62,15.52h-6.05c-1.11,0-2.02-0.77-2.02-1.72c0-0.95,0.9-1.72,2.02-1.72h6.05
				c1.11,0,2.02,0.77,2.02,1.72C135.64,14.75,134.73,15.52,133.62,15.52z"/>
			<path id="Shape_12_" class="st7" d="M143.71,15.52h-2.02c-1.11,0-2.02-0.77-2.02-1.72c0-0.95,0.9-1.72,2.02-1.72h2.02
				c1.11,0,2.02,0.77,2.02,1.72C145.72,14.75,144.82,15.52,143.71,15.52z"/>
			<path id="Shape_13_" class="st7" d="M133.62,22.41h-6.05c-1.11,0-2.02-0.77-2.02-1.72c0-0.95,0.9-1.72,2.02-1.72h6.05
				c1.11,0,2.02,0.77,2.02,1.72C135.64,21.64,134.73,22.41,133.62,22.41z"/>
			<path id="Shape_14_" class="st7" d="M143.71,22.41h-2.02c-1.11,0-2.02-0.77-2.02-1.72c0-0.95,0.9-1.72,2.02-1.72h2.02
				c1.11,0,2.02,0.77,2.02,1.72C145.72,21.64,144.82,22.41,143.71,22.41z"/>
			<path id="Shape_15_" class="st7" d="M133.62,29.31h-6.05c-1.11,0-2.02-0.77-2.02-1.72c0-0.95,0.9-1.72,2.02-1.72h6.05
				c1.11,0,2.02,0.77,2.02,1.72C135.64,28.54,134.73,29.31,133.62,29.31z"/>
			<path id="Shape_16_" class="st7" d="M143.71,29.31h-2.02c-1.11,0-2.02-0.77-2.02-1.72c0-0.95,0.9-1.72,2.02-1.72h2.02
				c1.11,0,2.02,0.77,2.02,1.72C145.72,28.54,144.82,29.31,143.71,29.31z"/>
			<path id="Shape_17_" class="st7" d="M133.62,36.21h-6.05c-1.11,0-2.02-0.77-2.02-1.72c0-0.95,0.9-1.72,2.02-1.72h6.05
				c1.11,0,2.02,0.77,2.02,1.72C135.64,35.43,134.73,36.21,133.62,36.21z"/>
			<path id="Shape_18_" class="st7" d="M143.71,36.21h-2.02c-1.11,0-2.02-0.77-2.02-1.72c0-0.95,0.9-1.72,2.02-1.72h2.02
				c1.11,0,2.02,0.77,2.02,1.72C145.72,35.43,144.82,36.21,143.71,36.21z"/>
			<path id="Shape_19_" class="st7" d="M133.62,43.1h-6.05c-1.11,0-2.02-0.77-2.02-1.72s0.9-1.72,2.02-1.72h6.05
				c1.11,0,2.02,0.77,2.02,1.72S134.73,43.1,133.62,43.1z"/>
			<path id="Shape_20_" class="st7" d="M143.71,43.1h-2.02c-1.11,0-2.02-0.77-2.02-1.72s0.9-1.72,2.02-1.72h2.02
				c1.11,0,2.02,0.77,2.02,1.72S144.82,43.1,143.71,43.1z"/>
			<path id="Shape_21_" class="st7" d="M133.62,50h-6.05c-1.11,0-2.02-0.77-2.02-1.72c0-0.95,0.9-1.72,2.02-1.72h6.05
				c1.11,0,2.02,0.77,2.02,1.72C135.64,49.23,134.73,50,133.62,50z"/>
			<path id="Shape_22_" class="st7" d="M133.62,75.86h-6.05c-1.11,0-2.02-0.77-2.02-1.72s0.9-1.72,2.02-1.72h6.05
				c1.11,0,2.02,0.77,2.02,1.72S134.73,75.86,133.62,75.86z"/>
			<path id="Shape_23_" class="st7" d="M133.62,82.76h-6.05c-1.11,0-2.02-0.77-2.02-1.72c0-0.95,0.9-1.72,2.02-1.72h6.05
				c1.11,0,2.02,0.77,2.02,1.72C135.64,81.99,134.73,82.76,133.62,82.76z"/>
			<path id="Shape_24_" class="st7" d="M228.43,75.86h-6.05c-1.11,0-2.02-0.77-2.02-1.72s0.9-1.72,2.02-1.72h6.05
				c1.11,0,2.02,0.77,2.02,1.72S229.55,75.86,228.43,75.86z"/>
			<path id="Shape_25_" class="st7" d="M228.43,82.76h-6.05c-1.11,0-2.02-0.77-2.02-1.72c0-0.95,0.9-1.72,2.02-1.72h6.05
				c1.11,0,2.02,0.77,2.02,1.72C230.45,81.99,229.55,82.76,228.43,82.76z"/>
			<path id="Shape_26_" class="st7" d="M143.71,50h-2.02c-1.11,0-2.02-0.77-2.02-1.72c0-0.95,0.9-1.72,2.02-1.72h2.02
				c1.11,0,2.02,0.77,2.02,1.72C145.72,49.23,144.82,50,143.71,50z"/>
			<path id="Shape_27_" class="st7" d="M228.43,15.52h-6.05c-1.11,0-2.02-0.77-2.02-1.72c0-0.95,0.9-1.72,2.02-1.72h6.05
				c1.11,0,2.02,0.77,2.02,1.72C230.45,14.75,229.55,15.52,228.43,15.52z"/>
			<path id="Shape_28_" class="st7" d="M214.31,15.52h-2.02c-1.11,0-2.02-0.77-2.02-1.72c0-0.95,0.9-1.72,2.02-1.72h2.02
				c1.11,0,2.02,0.77,2.02,1.72C216.33,14.75,215.42,15.52,214.31,15.52z"/>
			<path id="Shape_29_" class="st7" d="M133.62,8.62h-6.05c-1.11,0-2.02-0.77-2.02-1.72s0.9-1.72,2.02-1.72h6.05
				c1.11,0,2.02,0.77,2.02,1.72S134.73,8.62,133.62,8.62z"/>
			<path id="Shape_30_" class="st7" d="M143.71,8.62h-2.02c-1.11,0-2.02-0.77-2.02-1.72s0.9-1.72,2.02-1.72h2.02
				c1.11,0,2.02,0.77,2.02,1.72S144.82,8.62,143.71,8.62z"/>
			<path id="Shape_31_" class="st7" d="M228.43,8.62h-6.05c-1.11,0-2.02-0.77-2.02-1.72s0.9-1.72,2.02-1.72h6.05
				c1.11,0,2.02,0.77,2.02,1.72S229.55,8.62,228.43,8.62z"/>
			<path id="Shape_32_" class="st7" d="M214.31,8.62h-2.02c-1.11,0-2.02-0.77-2.02-1.72s0.9-1.72,2.02-1.72h2.02
				c1.11,0,2.02,0.77,2.02,1.72S215.42,8.62,214.31,8.62z"/>
			<path id="Shape_33_" class="st7" d="M228.43,22.41h-6.05c-1.11,0-2.02-0.77-2.02-1.72c0-0.95,0.9-1.72,2.02-1.72h6.05
				c1.11,0,2.02,0.77,2.02,1.72C230.45,21.64,229.55,22.41,228.43,22.41z"/>
			<path id="Shape_34_" class="st7" d="M214.31,22.41h-2.02c-1.11,0-2.02-0.77-2.02-1.72c0-0.95,0.9-1.72,2.02-1.72h2.02
				c1.11,0,2.02,0.77,2.02,1.72C216.33,21.64,215.42,22.41,214.31,22.41z"/>
			<path id="Shape_35_" class="st7" d="M228.43,29.31h-6.05c-1.11,0-2.02-0.77-2.02-1.72c0-0.95,0.9-1.72,2.02-1.72h6.05
				c1.11,0,2.02,0.77,2.02,1.72C230.45,28.54,229.55,29.31,228.43,29.31z"/>
			<path id="Shape_36_" class="st7" d="M214.31,29.31h-2.02c-1.11,0-2.02-0.77-2.02-1.72c0-0.95,0.9-1.72,2.02-1.72h2.02
				c1.11,0,2.02,0.77,2.02,1.72C216.33,28.54,215.42,29.31,214.31,29.31z"/>
			<path id="Shape_37_" class="st7" d="M228.43,36.21h-6.05c-1.11,0-2.02-0.77-2.02-1.72c0-0.95,0.9-1.72,2.02-1.72h6.05
				c1.11,0,2.02,0.77,2.02,1.72C230.45,35.43,229.55,36.21,228.43,36.21z"/>
			<path id="Shape_38_" class="st7" d="M214.31,36.21h-2.02c-1.11,0-2.02-0.77-2.02-1.72c0-0.95,0.9-1.72,2.02-1.72h2.02
				c1.11,0,2.02,0.77,2.02,1.72C216.33,35.43,215.42,36.21,214.31,36.21z"/>
			<path id="Shape_39_" class="st7" d="M228.43,43.1h-6.05c-1.11,0-2.02-0.77-2.02-1.72s0.9-1.72,2.02-1.72h6.05
				c1.11,0,2.02,0.77,2.02,1.72S229.55,43.1,228.43,43.1z"/>
			<path id="Shape_40_" class="st7" d="M214.31,43.1h-2.02c-1.11,0-2.02-0.77-2.02-1.72s0.9-1.72,2.02-1.72h2.02
				c1.11,0,2.02,0.77,2.02,1.72S215.42,43.1,214.31,43.1z"/>
			<path id="Shape_41_" class="st7" d="M228.43,50h-6.05c-1.11,0-2.02-0.77-2.02-1.72c0-0.95,0.9-1.72,2.02-1.72h6.05
				c1.11,0,2.02,0.77,2.02,1.72C230.45,49.23,229.55,50,228.43,50z"/>
			<path id="Shape_42_" class="st7" d="M214.31,50h-2.02c-1.11,0-2.02-0.77-2.02-1.72c0-0.95,0.9-1.72,2.02-1.72h2.02
				c1.11,0,2.02,0.77,2.02,1.72C216.33,49.23,215.42,50,214.31,50z"/>
		</g>
		<path id="Shape_43_" class="st2" d="M147.74,62.07v3.45h-4.03v-3.45c0-0.95,0.9-1.72,2.02-1.72S147.74,61.12,147.74,62.07z"/>
		<path id="Shape_44_" class="st2" d="M212.29,62.07v3.45h-4.03v-3.45c0-0.95,0.9-1.72,2.02-1.72S212.29,61.12,212.29,62.07z"/>
		<path id="Shape_45_" class="st8" d="M161.01,51.72c-0.91,0-1.71-0.52-1.95-1.28s0.15-1.55,0.94-1.94c5.53-2.53,11.73-3.79,18-3.68
			c1.11,0,2.02,0.77,2.02,1.72c0,0.95-0.9,1.72-2.02,1.72c-5.56-0.1-11.06,1-15.98,3.21C161.71,51.64,161.37,51.72,161.01,51.72
			L161.01,51.72z"/>
		<path id="Shape_46_" class="st9" d="M193.53,18.88l-4.38,3.53l-1.86,1.5l1.47,7.16c0.14,0.65-0.16,1.3-0.78,1.69
			c-0.62,0.39-1.44,0.45-2.12,0.15L178,29.48l-7.87,3.43c-0.68,0.3-1.51,0.24-2.12-0.15s-0.92-1.05-0.78-1.69l1.47-7.16l-1.86-1.5
			l-4.38-3.53c-0.57-0.46-0.78-1.15-0.54-1.78s0.88-1.09,1.65-1.18l8.67-1.03l3.95-6.62c0.35-0.58,1.04-0.94,1.8-0.94
			c0.76,0,1.45,0.36,1.8,0.94l3.95,6.62l8.67,1.03c0.77,0.09,1.41,0.55,1.65,1.18S194.1,18.42,193.53,18.88L193.53,18.88z"/>
	</g>
</g>
<g>
	<path class="st8" d="M23.2,67.3V33.7h4.46v12.77h8.93V33.7h4.42v33.6h-4.42V50.93h-8.93V67.3H23.2z"/>
	<path class="st8" d="M49.79,67.3c-0.99,0-1.82-0.34-2.5-1.03c-0.67-0.69-1.01-1.51-1.01-2.47V46.8c0-0.96,0.34-1.78,1.01-2.47
		c0.67-0.69,1.5-1.03,2.5-1.03h6.53c0.96,0,1.78,0.34,2.45,1.03c0.67,0.69,1.01,1.51,1.01,2.47V63.8c0,0.96-0.34,1.78-1.01,2.47
		c-0.67,0.69-1.49,1.03-2.45,1.03H49.79z M52.53,62.79h1.01c0.48,0,0.9-0.17,1.25-0.5c0.35-0.34,0.53-0.74,0.53-1.22V49.54
		c0-0.48-0.18-0.89-0.53-1.22c-0.35-0.34-0.77-0.5-1.25-0.5h-1.01c-0.48,0-0.89,0.17-1.22,0.5s-0.5,0.74-0.5,1.22v11.52
		c0,0.48,0.17,0.89,0.5,1.22S52.05,62.79,52.53,62.79z"/>
	<path class="st8" d="M63.66,67.3V32.36l4.51-1.01V43.3h5.71l-1.06,4.51h-4.66V67.3H63.66z"/>
	<path class="st8" d="M78.83,67.3c-0.96,0-1.78-0.34-2.47-1.03c-0.69-0.69-1.03-1.51-1.03-2.47V46.76c0-0.96,0.34-1.78,1.03-2.45
		c0.69-0.67,1.51-1.01,2.47-1.01h6.53c0.99,0,1.82,0.34,2.5,1.01c0.67,0.67,1.01,1.49,1.01,2.45v7.3c0,0.96-0.34,1.78-1.01,2.47
		c-0.67,0.69-1.5,1.03-2.5,1.03h-5.52v3.5c0,0.48,0.17,0.89,0.5,1.22s0.76,0.5,1.27,0.5h6.24l1.01,4.51H78.83z M79.84,53.04h2.78
		c0.48,0,0.89-0.17,1.22-0.5s0.5-0.74,0.5-1.22v-1.78c0-0.48-0.17-0.89-0.5-1.22s-0.74-0.5-1.22-0.5h-1.01
		c-0.51,0-0.94,0.17-1.27,0.5s-0.5,0.74-0.5,1.22V53.04z"/>
	<path class="st8" d="M91.74,67.3V32.4l4.51-1.01v35.9H91.74z"/>
</g>
<g>
	<path class="st8" d="M260.79,67.8V34.2h14.4c0.93,0,1.73,0.34,2.4,1.01c0.67,0.67,1.01,1.49,1.01,2.45v26.69
		c0,0.96-0.34,1.78-1.01,2.45c-0.67,0.67-1.47,1.01-2.4,1.01H260.79z M265.26,63.34h7.2c0.45,0,0.85-0.17,1.2-0.5
		c0.35-0.34,0.53-0.74,0.53-1.22V40.39c0-0.48-0.18-0.89-0.53-1.22c-0.35-0.34-0.75-0.5-1.2-0.5h-7.2V63.34z"/>
	<path class="st8" d="M284.98,67.8c-0.99,0-1.82-0.34-2.5-1.03c-0.67-0.69-1.01-1.51-1.01-2.47V47.3c0-0.96,0.34-1.78,1.01-2.47
		c0.67-0.69,1.5-1.03,2.5-1.03h6.53c0.96,0,1.78,0.34,2.45,1.03c0.67,0.69,1.01,1.51,1.01,2.47V64.3c0,0.96-0.34,1.78-1.01,2.47
		c-0.67,0.69-1.49,1.03-2.45,1.03H284.98z M287.72,63.29h1.01c0.48,0,0.9-0.17,1.25-0.5c0.35-0.34,0.53-0.74,0.53-1.22V50.04
		c0-0.48-0.18-0.89-0.53-1.22c-0.35-0.34-0.77-0.5-1.25-0.5h-1.01c-0.48,0-0.89,0.17-1.22,0.5s-0.5,0.74-0.5,1.22v11.52
		c0,0.48,0.17,0.89,0.5,1.22S287.24,63.29,287.72,63.29z"/>
	<path class="st8" d="M297.42,67.8v-24h10.03c0.96,0,1.78,0.34,2.47,1.03c0.69,0.69,1.03,1.51,1.03,2.47v5.23l-4.51-1.01v-1.44
		c0-0.48-0.17-0.9-0.5-1.25c-0.34-0.35-0.74-0.53-1.22-0.53h-2.78V67.8H297.42z"/>
	<path class="st8" d="M314.94,67.8c-0.96,0-1.78-0.34-2.47-1.01c-0.69-0.67-1.03-1.5-1.03-2.5v-7.25c0-0.96,0.34-1.78,1.03-2.47
		c0.69-0.69,1.51-1.03,2.47-1.03h3.74c0.51,0,0.94-0.17,1.27-0.5c0.34-0.34,0.5-0.74,0.5-1.22v-1.78c0-0.48-0.17-0.89-0.5-1.22
		c-0.34-0.34-0.76-0.5-1.27-0.5h-5.18l1.01-4.51h6.96c0.96,0,1.78,0.34,2.47,1.03c0.69,0.69,1.03,1.51,1.03,2.47v20.5H314.94z
		 M317.67,63.29h2.78v-5.23h-2.78c-0.48,0-0.89,0.17-1.22,0.5c-0.34,0.34-0.5,0.74-0.5,1.22v1.78c0,0.48,0.17,0.89,0.5,1.22
		C316.78,63.12,317.19,63.29,317.67,63.29z"/>
	<path class="st8" d="M331.83,67.8c-0.99,0-1.82-0.34-2.5-1.01s-1.01-1.5-1.01-2.5V47.3c0-0.99,0.34-1.82,1.01-2.5
		c0.67-0.67,1.5-1.01,2.5-1.01h5.52V32.86l4.51-1.06v36H331.83z M334.57,63.29h2.78V48.31h-2.78c-0.45,0-0.85,0.16-1.2,0.48
		c-0.35,0.32-0.53,0.74-0.53,1.25v11.52c0,0.45,0.18,0.85,0.53,1.2C333.72,63.11,334.12,63.29,334.57,63.29z"/>
	<path class="st8" d="M348.63,67.8c-0.99,0-1.82-0.34-2.5-1.03c-0.67-0.69-1.01-1.51-1.01-2.47V47.3c0-0.96,0.34-1.78,1.01-2.47
		c0.67-0.69,1.5-1.03,2.5-1.03h6.53c0.96,0,1.78,0.34,2.45,1.03c0.67,0.69,1.01,1.51,1.01,2.47V64.3c0,0.96-0.34,1.78-1.01,2.47
		c-0.67,0.69-1.49,1.03-2.45,1.03H348.63z M351.37,63.29h1.01c0.48,0,0.9-0.17,1.25-0.5c0.35-0.34,0.53-0.74,0.53-1.22V50.04
		c0-0.48-0.18-0.89-0.53-1.22c-0.35-0.34-0.77-0.5-1.25-0.5h-1.01c-0.48,0-0.89,0.17-1.22,0.5s-0.5,0.74-0.5,1.22v11.52
		c0,0.48,0.17,0.89,0.5,1.22S350.89,63.29,351.37,63.29z"/>
</g>
</svg>
