<svg id="Capa_1" enable-background="new 0 0 512 512" height="512" viewBox="0 0 512 512" width="512" xmlns="http://www.w3.org/2000/svg"><g><path d="m0 188.354h512v163.2h-512z" fill="#f2fbff"/><g><path d="m230.761 212.068h125.167v28.845h-125.167z" fill="#c9f0fd"/></g><g><path d="m230.761 271.118h125.167v28.845h-125.167z" fill="#c9f0fd"/></g><path d="m483.153 188.354c-4.764 50.564-24.659 144.06-86.705 163.2h115.552v-163.2z" fill="#c9f0fd"/><path d="m512 172.633v41.846h-512v-41.846c0-5.69 4.612-10.302 10.302-10.302h491.396c5.69 0 10.302 4.612 10.302 10.302z" fill="#c9f0fd"/><g><path d="m512 172.633v24.333h-512v-24.333c0-5.69 4.612-10.302 10.302-10.302h491.396c5.69 0 10.302 4.612 10.302 10.302z" fill="#fb8189"/><path d="m512 172.633v24.333h-39.538c7.757-11.064 10.868-23.818 11.919-34.635h17.317c5.69 0 10.302 4.612 10.302 10.302z" fill="#fb6672"/></g><path d="m77.779 239.072h-25.755c-4.267 0-7.726-3.459-7.726-7.726s3.459-7.726 7.726-7.726h25.755c4.267 0 7.726 3.459 7.726 7.726s-3.459 7.726-7.726 7.726z" fill="#fb8189"/><path d="m62.326 266.727h-10.302c-4.267 0-7.726-3.459-7.726-7.726 0-4.268 3.459-7.726 7.726-7.726h10.302c4.267 0 7.726 3.459 7.726 7.726s-3.459 7.726-7.726 7.726z" fill="#fb8189"/><g><path d="m230.761 196.965h125.167v28.845h-125.167z" fill="#688d97"/></g><path d="m355.928 196.965v28.845h-24.858c.484-10.58.474-20.47.247-28.845z" fill="#557983"/><g><path d="m230.761 256.015h125.167v28.845h-125.167z" fill="#688d97"/></g><path d="m328.247 256.015h27.681v28.845h-34.109c2.894-9.137 4.965-18.945 6.428-28.845z" fill="#557983"/><g><path d="m292.513 162.295v-39.975c0-16.031-13.042-29.073-29.073-29.073s-29.073 13.042-29.073 29.073v233.734c0 7.966-6.457 14.423-14.423 14.423-7.965 0-14.423-6.457-14.423-14.423v-233.734c0-31.937 25.982-57.919 57.919-57.919s57.919 25.982 57.919 57.919v39.975z" fill="#90bac4"/></g><g><path d="m440.503 162.295v-39.975c0-16.031-13.042-29.073-29.073-29.073s-29.073 13.042-29.073 29.073v233.734c0 7.966-6.457 14.423-14.423 14.423-7.965 0-14.423-6.457-14.423-14.423v-233.734c0-31.937 25.982-57.919 57.918-57.919s57.919 25.982 57.919 57.919v39.975z" fill="#90bac4"/></g><path d="m512 330.124v50.324c-30.39 0-42.742-7.263-58.473-13.166h-.01c-10.765-4.038-23.117-7.438-43.917-7.438-51.21 0-51.21 20.604-102.41 20.604s-51.2-20.604-102.4-20.604c-51.19 0-51.19 20.604-102.39 20.604s-51.2-20.604-102.4-20.604v-50.324c51.2 0 51.2 20.604 102.4 20.604s51.2-20.604 102.39-20.604c51.2 0 51.2 20.604 102.4 20.604s51.2-20.604 102.41-20.604c20.799 0 33.151 3.4 43.917 7.438h.01c15.731 5.903 28.083 13.166 58.473 13.166z" fill="#68dbf9"/><path d="m512 368.303v47.265c-30.39 0-42.742-7.263-58.473-13.166h-.01c-10.765-4.038-23.117-7.438-43.917-7.438-51.21 0-51.21 20.604-102.41 20.604s-51.2-20.604-102.4-20.604c-51.19 0-51.19 20.604-102.39 20.604s-51.2-20.604-102.4-20.604v-47.265c51.2 0 51.2 20.604 102.4 20.604s51.2-20.604 102.39-20.604c51.2 0 51.2 20.604 102.4 20.604s51.2-20.604 102.41-20.604c20.799 0 33.151 3.4 43.917 7.438h.01c15.731 5.903 28.083 13.166 58.473 13.166z" fill="#24d1f8"/><path d="m512 402.59v34.707c0 5.69-4.612 10.302-10.302 10.302h-491.396c-5.69-.001-10.302-4.613-10.302-10.303v-55.31c51.2 0 51.2 20.604 102.4 20.604s51.2-20.604 102.39-20.604c51.2 0 51.2 20.604 102.4 20.604s51.2-20.604 102.41-20.604c20.799 0 33.151 3.4 43.917 7.438h.01c15.731 5.903 28.083 13.166 58.473 13.166z" fill="#21c1f8"/></g></svg>