<svg id="Capa_1" enable-background="new 0 0 512 512" height="512" viewBox="0 0 512 512" width="512" xmlns="http://www.w3.org/2000/svg"><g><path d="m280.251 90.77c0 13.515-10.952 24.467-24.467 24.467-7.267 0-13.793-3.17-18.26-8.193-3.87-4.323-6.207-10.025-6.207-16.273 0-13.515 10.952-24.467 24.467-24.467 4.241 0 8.245 1.081 11.724 2.985 7.596 4.157 12.743 12.217 12.743 21.481z" fill="#fef0dc"/><path d="m280.251 90.77c0 13.515-10.952 24.467-24.467 24.467-7.267 0-13.793-3.17-18.26-8.193 25.722-7.874 30.55-24.776 29.984-37.755 7.596 4.157 12.743 12.217 12.743 21.481z" fill="#f9e1c2"/><path d="m223.797 317.905h63.974v54.208h-63.974z" fill="#fc9744"/><path d="m223.797 317.905h63.974v27.526h-63.974z" fill="#fb8627"/><path d="m287.768 189.11h-63.969v-65.554c0-7.087 5.745-12.832 12.832-12.832h38.305c7.087 0 12.832 5.745 12.832 12.832z" fill="#fca863"/><path d="m511.567 306.944c0 12.888-10.446 23.334-23.334 23.334h-464.9c-6.439 0-12.28-2.617-16.504-6.83-4.212-4.224-6.829-10.055-6.829-16.504 0-6.439 2.617-12.28 6.83-16.493 4.224-4.224 10.065-6.84 16.504-6.84 1.473 0 2.926-.165 4.317-.484 6.387-1.432 11.744-6.006 14.072-12.331l1.154-3.121 26.043-70.701c13.135-35.624 47.069-59.287 85.031-59.287h203.667c.762 0 1.535.01 2.287.031 37.025.927 69.877 24.354 82.744 59.256l26.043 70.701 1.154 3.121c2.328 6.325 7.685 10.899 14.072 12.331 1.391.319 2.843.484 4.316.484 6.439 0 12.28 2.617 16.504 6.84 4.213 4.213 6.829 10.054 6.829 16.493z" fill="#fcddb3"/><path d="m511.567 306.944c0 12.888-10.446 23.334-23.334 23.334h-140.011c16.05-10.59 27.671-27.537 35.181-47.151 1.916-4.996 3.565-10.168 4.945-15.453 13.341-50.963 2.339-112.434-28.443-129.958 37.025.927 69.877 24.354 82.744 59.256l26.043 70.701 1.154 3.121c.134.35.268.701.422 1.04.206.494.443.968.69 1.432.113.216.227.422.361.628.083.175.185.34.299.505.134.216.278.433.422.649.381.567.793 1.113 1.246 1.638.134.165.278.33.433.494.165.185.34.381.536.567.165.165.33.33.495.484.35.34.721.669 1.102.968.196.154.381.309.577.453.464.361.958.69 1.453.999.247.165.505.309.762.453.155.082.309.165.474.258.144.072.288.144.443.216.35.185.721.35 1.092.505.309.134.618.247.927.36.33.124.659.227.989.33.124.041.247.072.381.103.319.093.639.175.968.247 1.391.319 2.843.484 4.316.484 6.439 0 12.28 2.617 16.504 6.84 4.213 4.217 6.829 10.058 6.829 16.497z" fill="#fbcc85"/><path d="m464.734 369.487v23.901h-415.842v-23.901c0-5.682 4.611-10.293 10.293-10.293h395.256c5.682 0 10.293 4.611 10.293 10.293z" fill="#fcddb3"/><path d="m464.734 369.487v23.901h-42.675c7.452-13.031 4.858-26.124 1.801-34.194h30.581c5.682 0 10.293 4.611 10.293 10.293z" fill="#fbcc85"/><g fill="#fca863"><g><path d="m451.918 151.11c-1.977 0-3.955-.754-5.463-2.263-3.018-3.018-3.018-7.909-.001-10.927l6.095-6.095c3.018-3.017 7.91-3.018 10.927-.001 3.018 3.018 3.018 7.909.001 10.927l-6.095 6.095c-1.51 1.51-3.488 2.264-5.464 2.264z"/><g><path d="m468.22 171.922c-4.266 0-7.724-3.457-7.726-7.723-.002-4.267 3.456-7.728 7.723-7.729l8.62-.004h.003c4.266 0 7.724 3.457 7.726 7.723.002 4.267-3.456 7.728-7.723 7.729l-8.62.004c-.001 0-.002 0-.003 0z"/><path d="m431.105 134.807c-.001 0-.002 0-.004 0-4.267-.002-7.724-3.463-7.722-7.73l.004-8.619c.002-4.266 3.461-7.723 7.726-7.723h.004c4.267.002 7.724 3.463 7.722 7.73l-.004 8.619c-.002 4.266-3.461 7.723-7.726 7.723z"/></g></g><g><path d="m59.65 151.11c-1.978 0-3.955-.755-5.464-2.263l-6.095-6.095c-3.017-3.018-3.017-7.909.001-10.927 3.017-3.017 7.909-3.016 10.927.001l6.095 6.095c3.017 3.018 3.017 7.909-.001 10.927-1.508 1.508-3.486 2.262-5.463 2.262z"/><g><path d="m43.347 171.922c-.001 0-.002 0-.003 0l-8.62-.004c-4.268-.002-7.725-3.462-7.723-7.729.002-4.266 3.461-7.723 7.726-7.723h.003l8.62.004c4.268.002 7.725 3.462 7.723 7.729-.002 4.266-3.46 7.723-7.726 7.723z"/><path d="m80.463 134.807c-4.267 0-7.725-3.457-7.726-7.724l-.003-8.619c-.001-4.267 3.457-7.727 7.723-7.729h.003c4.267 0 7.725 3.457 7.726 7.724l.003 8.619c.001 4.267-3.457 7.727-7.723 7.729-.001 0-.002 0-.003 0z"/></g></g></g><path d="m512 436.938c0 2.419-.978 4.611-2.563 6.196s-3.777 2.563-6.196 2.563h-494.049c-4.838 0-8.759-3.922-8.759-8.759 0-13 5.27-24.776 13.793-33.288 8.523-8.523 20.288-13.793 33.288-13.793h417.406c26 0 47.08 21.08 47.08 47.081z" fill="#7da2b0"/><path d="m512 436.938c0 2.419-.978 4.611-2.563 6.196s-3.777 2.563-6.196 2.563h-44.919c10.509-20.123-3.273-42.778-15.131-55.84h21.729c26 0 47.08 21.08 47.08 47.081z" fill="#688d97"/><path d="m283.599 275.4c0 4.275-3.451 7.726-7.726 7.726h-248.223c6.387-1.432 11.744-6.006 14.072-12.331l1.154-3.121h232.996c4.275-.001 7.727 3.461 7.727 7.726z" fill="#fbcc85"/><path d="m483.917 283.126h-110.445c-4.275 0-7.726-3.451-7.726-7.726 0-4.265 3.451-7.726 7.726-7.726h95.22l1.154 3.121c2.327 6.325 7.684 10.899 14.071 12.331z" fill="#e8b66b"/><path d="m388.347 267.673c-1.38 5.285-3.029 10.456-4.945 15.453h-9.931c-4.275 0-7.726-3.451-7.726-7.726 0-4.265 3.451-7.726 7.726-7.726h14.876z" fill="#fbcc85"/></g></svg>